<?xml version="1.0" standalone="no"?>
<!DOCTYPE svg PUBLIC "-//W3C//DTD SVG 20010904//EN"
 "http://www.w3.org/TR/2001/REC-SVG-20010904/DTD/svg10.dtd">
<svg version="1.0" xmlns="http://www.w3.org/2000/svg"
 width="903.000000pt" height="903.000000pt" viewBox="0 0 903.000000 903.000000"
 preserveAspectRatio="xMidYMid meet">
<metadata>
Created by potrace 1.11, written by Peter Selinger 2001-2013
</metadata>
<g transform="translate(0.000000,903.000000) scale(0.100000,-0.100000)"
fill="#000000" stroke="none">
<path d="M2725 9010 c-95 -24 -193 -91 -231 -156 -52 -89 -52 -80 -52 -996 -1
-469 -4 -875 -7 -903 -14 -106 -92 -228 -189 -293 -61 -41 -118 -61 -194 -68
-37 -3 -452 -6 -922 -7 l-855 -2 -58 -27 c-173 -81 -254 -305 -171 -474 24
-50 119 -149 651 -681 593 -594 624 -627 659 -699 35 -69 38 -84 40 -167 3
-110 -22 -197 -79 -273 -20 -27 -298 -310 -618 -629 -546 -545 -626 -628 -656
-681 -26 -47 -38 -141 -25 -202 37 -179 152 -287 317 -299 39 -2 450 -5 915
-7 465 -1 855 -5 866 -8 159 -47 296 -197 318 -351 4 -26 8 -435 8 -910 1
-722 3 -870 15 -913 41 -143 207 -252 367 -242 129 8 117 -2 806 685 679 678
668 669 805 694 104 19 225 -6 311 -63 23 -15 318 -304 657 -642 558 -557 622
-617 680 -645 76 -36 146 -41 234 -15 136 39 226 128 253 248 7 34 11 327 11
925 1 844 2 878 21 935 50 151 155 249 313 292 40 11 216 13 917 14 564 0 883
3 914 10 156 35 265 185 261 361 -4 139 16 116 -681 814 -442 443 -629 636
-648 672 -79 144 -72 325 17 453 15 21 302 314 639 652 485 485 619 625 642
668 25 49 29 65 29 146 0 84 -2 95 -38 166 -38 77 -87 130 -144 157 -15 7 -37
18 -48 25 -14 8 -271 12 -918 13 -965 2 -946 1 -1047 53 -91 46 -177 152 -210
258 -17 53 -19 116 -19 933 0 481 -4 891 -7 910 -20 106 -91 191 -202 241
-116 53 -239 45 -333 -20 -24 -16 -321 -306 -659 -644 -697 -695 -667 -670
-835 -685 -33 -3 -86 0 -117 6 -129 24 -121 17 -797 691 -695 693 -677 679
-809 685 -37 2 -80 -1 -97 -5z"/>
</g>
</svg>
