<?xml version="1.0" encoding="UTF-8"?>
<svg width="400px" height="144px" viewBox="0 0 400 144" version="1.1" xmlns="http://www.w3.org/2000/svg" xmlns:xlink="http://www.w3.org/1999/xlink">
    <!-- Generator: Sketch 59 (86127) - https://sketch.com -->
    <title>Logo / Full Text Copy</title>
    <desc>Created with Sketch.</desc>
    <g id="Page-1" stroke="none" stroke-width="1" fill="none" fill-rule="evenodd">
        <g id="Homepage-Mock-Copy-11" transform="translate(-784.000000, -80.000000)">
            <g id="Logo-/-Full-Text-Copy" transform="translate(784.000000, 78.000000)">
                <path d="M189.793214,35.9896208 L189.793214,39.508982 L194.655489,39.508982 L194.655489,14.5956088 L189.839521,14.5956088 L189.839521,28.1173653 C189.839521,33.0259481 187.848303,36.0359281 183.819561,36.0359281 C179.466667,36.0359281 178.864671,32.7481038 178.864671,29.1361277 L178.864671,14.5956088 L174.048703,14.5956088 L174.048703,30.4327345 C174.048703,36.4526946 176.317764,40.110978 182.198802,40.110978 C185.949701,40.110978 188.357685,38.4902196 189.793214,35.9896208 Z M205.908184,18.2075848 L205.908184,14.5956088 L201.092216,14.5956088 L201.092216,39.508982 L205.908184,39.508982 L205.908184,26.1261477 C205.908184,21.1712575 207.945709,18.1612774 212.113373,18.1612774 C216.651497,18.1612774 217.253493,21.4954092 217.253493,25.1073852 L217.253493,39.508982 L222.069461,39.508982 L222.069461,23.8107784 C222.069461,18.0223553 219.754092,14.1325349 213.734132,14.1325349 C209.844311,14.1325349 207.343713,15.7532934 205.908184,18.2075848 Z M232.905389,5.93612774 L228.089421,5.93612774 L228.089421,11.261477 L232.905389,11.261477 L232.905389,5.93612774 Z M232.905389,14.5956088 L228.089421,14.5956088 L228.089421,39.508982 L232.905389,39.508982 L232.905389,14.5956088 Z M247.77006,33.0722555 L241.472255,14.5956088 L236.146906,14.5956088 L245.408383,39.508982 L249.807585,39.508982 L259.022754,14.5956088 L254.021557,14.5956088 L247.77006,33.0722555 Z M279.305389,32.1924152 C278.286627,34.5540918 276.249102,35.9896208 272.776048,35.9896208 C268.886228,35.9896208 265.968862,33.1185629 265.505788,28.5341317 L284.491816,28.5341317 C285.001198,20.4303393 280.509381,14.1325349 272.822355,14.1325349 C265.737325,14.1325349 260.550898,19.2726547 260.550898,27.005988 C260.550898,34.2299401 264.903792,40.110978 272.961277,40.110978 C279.305389,40.110978 283.00998,36.3137725 284.167665,32.1924152 L279.305389,32.1924152 Z M265.598403,24.7369261 C266.246707,20.0135729 269.02515,18.0686627 272.776048,18.0686627 C276.758483,18.0686627 279.351697,21.0323353 279.490619,24.7369261 L265.598403,24.7369261 Z M302.181238,19.550499 L302.181238,14.5493014 C301.764471,14.502994 301.25509,14.502994 300.838323,14.502994 C297.735729,14.5493014 295.23513,16.1700599 293.938523,18.9948104 L293.938523,14.5956088 L289.21517,14.5956088 L289.21517,39.508982 L294.031138,39.508982 L294.031138,26.4502994 C294.031138,21.2175649 295.976048,19.4115768 299.680639,19.4115768 C300.467864,19.4115768 301.301397,19.4578842 302.181238,19.550499 Z M320.148503,21.5417166 L324.918164,21.5417166 C323.992016,16.7257485 319.963273,14.0862275 314.962076,14.0862275 C309.497804,14.0862275 304.867066,16.7720559 304.867066,21.1712575 C304.867066,25.7528535 308.244246,27.4460721 311.907996,28.2097502 L315.888224,28.9972056 C318.481437,29.5065868 320.657884,30.4327345 320.657884,32.7481038 C320.657884,34.9708583 318.2499,36.2674651 315.147305,36.2674651 C311.674251,36.2674651 309.821956,34.6003992 309.173653,31.7756487 L304.26507,31.7756487 C304.867066,36.4526946 308.710579,40.110978 315.008383,40.110978 C320.750499,40.110978 325.473852,37.2399202 325.473852,32.1924152 C325.473852,27.4201819 321.503725,25.770521 316.890909,24.835417 L313.063473,24.0886228 C310.794411,23.6255489 309.590419,22.8383234 309.590419,20.9860279 C309.590419,18.948503 312.137325,17.9760479 314.499002,17.9760479 C317.323752,17.9760479 319.453892,18.9948104 320.148503,21.5417166 Z M328.807984,32.7944112 C328.807984,37.3325349 332.651497,40.110978 337.699002,40.110978 C341.727745,40.110978 344.552495,38.7217565 346.034331,36.2211577 L346.073847,36.8090076 C346.164815,37.9973032 346.290566,38.6661876 346.451098,39.508982 L351.081836,39.508982 C350.643135,37.4032146 350.412239,34.5493456 350.38915,31.1048701 L350.388576,30.2500364 C350.399984,28.8639537 350.47984,25.1106929 350.47984,24.5516966 C350.572455,17.0962076 346.867864,13.9936128 340.431138,13.9936128 C334.735329,13.9936128 330.382435,17.1888224 329.965669,22.4678643 L334.827944,22.4678643 C335.013174,19.4115768 336.911776,17.6982036 340.245908,17.6982036 C343.302196,17.6982036 345.617565,19.1800399 345.617565,23.5792415 L345.617565,24.0886228 L344.817038,24.1749955 C335.548639,25.2008575 328.807984,26.8966511 328.807984,32.7944112 Z M345.849102,27.6542914 L345.849102,29.4602794 C345.849102,34.4151697 342.746507,36.4063872 338.764072,36.4063872 C335.846707,36.4063872 334.040719,34.9708583 334.040719,32.7017964 C334.040719,29.4602794 338.115768,28.3952096 345.849102,27.6542914 Z M361.223154,39.508982 L361.223154,5.93612774 L356.407186,5.93612774 L356.407186,39.508982 L361.223154,39.508982 Z M191.228743,52.7225549 L191.228743,65.0403194 C189.700599,62.4934132 187.107385,60.9189621 183.449102,60.9189621 C177.660679,60.9189621 172.705788,65.7812375 172.705788,73.8850299 C172.705788,82.0351297 177.660679,86.8974052 183.449102,86.8974052 C187.107385,86.8974052 189.700599,85.3229541 191.228743,82.7760479 L191.228743,86.2954092 L196.044711,86.2954092 L196.044711,52.7225549 L191.228743,52.7225549 Z M184.560479,64.9477046 C188.26507,64.9477046 191.413972,67.7261477 191.413972,73.8850299 C191.413972,80.0439122 188.26507,82.8686627 184.560479,82.8686627 C180.578044,82.8686627 177.845908,79.4882236 177.845908,73.8850299 C177.845908,68.2818363 180.578044,64.9477046 184.560479,64.9477046 Z M219.568862,78.9788423 C218.5501,81.340519 216.512575,82.7760479 213.039521,82.7760479 C209.149701,82.7760479 206.232335,79.90499 205.769261,75.3205589 L224.755289,75.3205589 C225.264671,67.2167665 220.772854,60.9189621 213.085828,60.9189621 C206.000798,60.9189621 200.814371,66.0590818 200.814371,73.7924152 C200.814371,81.0163673 205.167265,86.8974052 213.22475,86.8974052 C219.568862,86.8974052 223.273453,83.1001996 224.431138,78.9788423 L219.568862,78.9788423 Z M205.861876,71.5233533 C206.51018,66.8 209.288623,64.8550898 213.039521,64.8550898 C217.021956,64.8550898 219.61517,67.8187625 219.754092,71.5233533 L205.861876,71.5233533 Z M243.648703,68.3281437 L248.418363,68.3281437 C247.492216,63.5121756 243.463473,60.8726547 238.462275,60.8726547 C232.998004,60.8726547 228.367265,63.558483 228.367265,67.9576846 C228.367265,72.5392806 231.744445,74.2324993 235.408195,74.9961773 L239.388423,75.7836327 L239.854932,75.8810565 C242.237454,76.410377 244.158084,77.3594871 244.158084,79.5345309 C244.158084,81.7572854 241.7501,83.0538922 238.647505,83.0538922 C235.174451,83.0538922 233.322156,81.3868263 232.673852,78.5620758 L227.765269,78.5620758 C228.367265,83.2391218 232.210778,86.8974052 238.508583,86.8974052 C244.250699,86.8974052 248.974052,84.0263473 248.974052,78.9788423 C248.974052,74.1165669 244.852695,72.4958084 240.129341,71.5696607 L236.563673,70.8750499 C234.294611,70.411976 233.090619,69.6247505 233.090619,67.7724551 C233.090619,65.7349301 235.637525,64.762475 237.999202,64.762475 C240.823952,64.762475 242.954092,65.7812375 243.648703,68.3281437 Z M258.605988,52.7225549 L253.79002,52.7225549 L253.79002,58.0479042 L258.605988,58.0479042 L258.605988,52.7225549 Z M258.605988,61.3820359 L253.79002,61.3820359 L253.79002,86.2954092 L258.605988,86.2954092 L258.605988,61.3820359 Z M281.667066,61.3820359 L281.667066,65.0403194 C280.138922,62.4934132 277.638323,60.9189621 273.98004,60.9189621 C268.191617,60.9189621 263.375649,65.5033932 263.375649,73.3756487 C263.375649,81.2942116 268.191617,85.8786427 273.98004,85.8786427 C277.638323,85.8786427 280.138922,84.3041916 281.667066,81.7572854 L281.667066,84.3968064 C281.667066,86.9437126 281.157685,88.2403194 280.18523,89.3053892 C279.166467,90.4630739 277.545709,91.1113772 275.184032,91.1113772 C271.572056,91.1113772 270.136527,89.7684631 269.627146,87.4994012 L264.672255,87.4994012 C265.459481,92.7321357 269.534531,95.1401198 275.091417,95.1401198 C278.888623,95.1401198 281.898603,94.1213573 283.797206,92.1301397 C285.510579,90.4167665 286.483034,87.962475 286.483034,83.3780439 L286.483034,61.3820359 L281.667066,61.3820359 Z M275.091417,64.9013972 C278.796008,64.9013972 281.852295,67.4483034 281.852295,73.3756487 C281.852295,79.3493014 278.796008,81.942515 275.091417,81.942515 C271.108982,81.942515 268.515768,78.7936128 268.515768,73.3756487 C268.515768,68.0502994 271.108982,64.9013972 275.091417,64.9013972 Z M297.735729,64.994012 L297.735729,61.3820359 L292.91976,61.3820359 L292.91976,86.2954092 L297.735729,86.2954092 L297.735729,72.9125749 C297.735729,67.9576846 299.773253,64.9477046 303.940918,64.9477046 C308.479042,64.9477046 309.081038,68.2818363 309.081038,71.8938124 L309.081038,86.2954092 L313.897006,86.2954092 L313.897006,70.5972056 C313.897006,64.8087824 311.581637,60.9189621 305.561677,60.9189621 C301.671856,60.9189621 299.171257,62.5397206 297.735729,64.994012 Z M175.300411,106.224658 L175.299002,108.168463 L171.825948,108.168463 L171.825948,111.826747 L175.299002,111.826747 L175.299002,133.081836 L180.11497,133.081836 L180.11497,111.826747 L184.930938,111.826747 L184.930938,108.168463 L180.11497,108.168463 L180.11497,106.45509 L180.120228,106.030658 C180.177739,103.872759 180.729621,103.381567 182.873004,103.353779 L184.930938,103.352495 L184.930938,99.508982 L182.754491,99.508982 L182.175554,99.5141896 C176.905843,99.6123225 175.353266,101.123207 175.300411,106.224658 L175.300411,106.224658 Z M202.110978,113.123353 L202.110978,108.122156 C201.694212,108.075848 201.18483,108.075848 200.768064,108.075848 C197.665469,108.122156 195.16487,109.742914 193.868263,112.567665 L193.868263,108.168463 L189.14491,108.168463 L189.14491,133.081836 L193.960878,133.081836 L193.960878,120.023154 C193.960878,114.790419 195.905788,112.984431 199.610379,112.984431 C200.397605,112.984431 201.231138,113.030739 202.110978,113.123353 Z M204.426347,126.367265 C204.426347,130.905389 208.26986,133.683832 213.317365,133.683832 C217.346108,133.683832 220.170858,132.294611 221.652695,129.794012 C221.745309,131.368463 221.884232,132.109381 222.069461,133.081836 L226.7002,133.081836 C226.261498,130.976069 226.030603,128.1222 226.007513,124.677724 L226.006939,123.822891 C226.018347,122.436808 226.098204,118.683547 226.098204,118.124551 C226.190818,110.669062 222.486228,107.566467 216.049501,107.566467 C210.353693,107.566467 206.000798,110.761677 205.584032,116.040719 L210.446307,116.040719 C210.631537,112.984431 212.53014,111.271058 215.864271,111.271058 C218.920559,111.271058 221.235928,112.752894 221.235928,117.152096 L221.235928,117.661477 L220.435402,117.74785 C211.167002,118.773712 204.426347,120.469505 204.426347,126.367265 Z M221.467465,121.227146 L221.467465,123.033134 C221.467465,127.988024 218.36487,129.979242 214.382435,129.979242 C211.46507,129.979242 209.659082,128.543713 209.659082,126.274651 C209.659082,123.033134 213.734132,121.968064 221.467465,121.227146 Z M236.841517,133.081836 L236.841517,119.699002 C236.841517,114.744112 238.74012,111.734132 242.583633,111.734132 C246.936527,111.734132 247.492216,115.068263 247.492216,118.68024 L247.492216,133.081836 L252.308184,133.081836 L252.308184,119.699002 C252.308184,114.744112 254.253094,111.734132 258.050299,111.734132 C262.403194,111.734132 262.958882,115.068263 262.958882,118.68024 L262.958882,133.081836 L267.77485,133.081836 L267.77485,117.383633 C267.77485,111.59521 265.505788,107.705389 259.671058,107.705389 C256.429541,107.705389 253.512176,109.001996 251.428343,112.104591 C250.316966,109.326148 248.047904,107.705389 244.204391,107.705389 C240.638723,107.705389 238.277046,109.326148 236.841517,111.780439 L236.841517,108.168463 L232.025549,108.168463 L232.025549,133.081836 L236.841517,133.081836 Z M290.882236,125.765269 C289.863473,128.126946 287.825948,129.562475 284.352894,129.562475 C280.463074,129.562475 277.545709,126.691417 277.082635,122.106986 L296.068663,122.106986 C296.578044,114.003194 292.086228,107.705389 284.399202,107.705389 C277.314172,107.705389 272.127745,112.845509 272.127745,120.578842 C272.127745,127.802794 276.480639,133.683832 284.538124,133.683832 C290.882236,133.683832 294.586826,129.886627 295.744511,125.765269 L290.882236,125.765269 Z M277.17525,118.30978 C277.823553,113.586427 280.601996,111.641517 284.352894,111.641517 C288.335329,111.641517 290.928543,114.60519 291.067465,118.30978 L277.17525,118.30978 Z M311.859481,108.168463 L307.228743,126.228343 L303.01477,108.168463 L297.782036,108.168463 L304.681836,133.081836 L309.21996,133.081836 L314.313772,113.817964 L319.546507,133.081836 L324.038323,133.081836 L330.984431,108.168463 L325.751697,108.168463 L321.491417,126.228343 L316.860679,108.168463 L311.859481,108.168463 Z M357.009182,120.717764 C357.009182,111.687824 350.803992,107.705389 344.876647,107.705389 C338.995609,107.705389 332.790419,111.687824 332.790419,120.717764 C332.790419,129.701397 338.995609,133.683832 344.876647,133.683832 C350.803992,133.683832 357.009182,129.701397 357.009182,120.717764 Z M344.876647,129.608782 C341.264671,129.608782 337.884232,126.876647 337.884232,120.717764 C337.884232,114.41996 341.264671,111.780439 344.876647,111.780439 C348.53493,111.780439 351.915369,114.512575 351.915369,120.717764 C351.915369,126.784032 348.53493,129.608782 344.876647,129.608782 Z M374.791218,113.123353 L374.791218,108.122156 C374.374451,108.075848 373.86507,108.075848 373.448303,108.075848 C370.345709,108.122156 367.84511,109.742914 366.548503,112.567665 L366.548503,108.168463 L361.82515,108.168463 L361.82515,133.081836 L366.641118,133.081836 L366.641118,120.023154 C366.641118,114.790419 368.586028,112.984431 372.290619,112.984431 C373.077844,112.984431 373.911377,113.030739 374.791218,113.123353 Z M383.404391,99.508982 L383.404391,118.819162 L393.314172,108.168463 L399.19521,108.168463 L389.516966,118.448703 L399.88982,133.081836 L394.147705,133.081836 L386.229142,121.921756 L383.404391,124.931737 L383.404391,133.081836 L378.588423,133.081836 L378.588423,99.508982 L383.404391,99.508982 Z" id="universaldesignframework" fill="#000000" fill-rule="nonzero"></path>
                <g id="Logo-/-Star-Spica" transform="translate(0.095808, 2.000000)">
                    <path d="M1.93459235,95.347766 L20.3921124,76.8893027 C23.0455271,74.235888 23.0455271,69.8323488 20.3921124,67.1789341 L1.93459235,48.7214266 C0.12530243,46.9114413 -0.300512607,44.8354573 0.657147244,42.4934746 C1.61480709,40.1514919 3.37118685,38.9805005 5.9262865,38.9805005 L32.1142331,38.9805005 C35.8667281,38.9805005 38.9805005,35.8667281 38.9805005,32.1142331 L38.9805005,5.92611642 C38.9805005,3.37155413 40.1514919,1.61523108 42.4934746,0.657147244 C44.8354573,-0.300936588 46.9113056,0.124878448 48.7210195,1.93459235 L67.1748218,20.3841284 C69.8282365,23.037543 74.2317758,23.037543 76.8851904,20.3841284 L95.3478024,1.93459235 C97.157492,0.124878448 99.2333282,-0.300936588 101.575311,0.657147244 C103.917294,1.61523108 105.088285,3.37155413 105.088285,5.92611642 L105.088285,32.1142331 C105.088285,35.8667281 108.202057,38.9805005 111.954552,38.9805005 L138.142499,38.9805005 C140.697175,38.9803339 142.453554,40.1513252 143.411638,42.4934746 C144.369722,44.835624 143.943907,46.911608 142.134193,48.7214266 L123.676004,67.1789341 C121.02259,69.8323488 121.02259,74.235888 123.676004,76.8893027 L142.134193,95.347766 C143.943702,97.1574799 144.369517,99.2333282 143.411638,101.575311 C142.453759,103.917294 140.69738,105.088285 138.142499,105.088285 L111.954552,105.088285 C108.202057,105.088285 105.088285,108.202057 105.088285,111.954552 L105.088285,138.142669 C105.088285,140.697231 103.917294,142.453554 101.575311,143.411638 C99.2333282,144.369722 97.157492,143.943674 95.3478024,142.133493 L76.8851904,123.676004 C74.2317758,121.02259 69.8282365,121.02259 67.1748218,123.676004 L48.7210195,142.133493 C46.9113056,143.943674 44.8354573,144.369722 42.4934746,143.411638 C40.1514919,142.453554 38.9805005,140.697231 38.9805005,138.142669 L38.9805005,111.954552 C38.9805005,108.202057 35.8667281,105.088285 32.1142331,105.088285 L5.9262865,105.088285 C3.37161083,105.088285 1.61523108,103.917294 0.657147244,101.575311 C-0.300936588,99.2333282 0.124878448,97.1574799 1.93459235,95.347766 Z" id="Path" fill="#000000"></path>
                    <g id="Group-2" stroke-width="1" transform="translate(53.671119, 53.671119)" fill="#FFFFFF">
                        <path d="M33.2451565,17.4924247 C35.3663431,17.9432969 36.7329804,20.0015642 36.3410255,22.1211365 C36.340644,22.125603 36.3397408,22.1305832 36.3387006,22.1355648 L36.3266235,22.1951673 C36.324444,22.2058413 36.3222198,22.2165164 36.3199505,22.2271924 L36.3184002,22.2263702 L36.2640367,22.4768056 C34.3963191,30.6380533 27.0908182,36.7265469 18.3632735,36.7265469 C9.54991172,36.7265469 2.18669695,30.5177297 0.408996114,22.2354622 L0.407400208,22.2263702 C-0.0374679845,20.1380337 1.24059205,18.0833389 3.28153093,17.5402166 L3.48139046,17.4924247 C5.63794137,17.0340357 7.75776904,18.4106679 8.21615809,20.5672188 L8.21587672,20.5573092 C8.21686713,20.5603988 8.21770486,20.5635247 8.21838849,20.5666872 C9.22875737,25.2405708 13.387054,28.742515 18.3632735,28.742515 C23.3735337,28.742515 27.5546424,25.1924955 28.5284506,20.4706058 L28.5374002,20.4513702 L28.5581807,20.3673593 C29.101303,18.3264204 31.1559978,17.0483604 33.2451565,17.4924247 Z" id="Combined-Shape"></path>
                        <circle id="Oval" cx="3.99201597" cy="3.99201597" r="3.99201597"></circle>
                        <ellipse id="Oval-Copy" cx="32.73429" cy="3.99201597" rx="3.99177507" ry="3.99201597"></ellipse>
                    </g>
                </g>
            </g>
        </g>
    </g>
</svg>